<svg width="227" height="324" viewBox="0 0 227 324" fill="none" xmlns="http://www.w3.org/2000/svg">
<g id="Ballon">
<path id="Vector" d="M46.918 123.116L10.041 323.13" stroke="#707070"/>
<path id="Vector_2" d="M131.619 129.825L10.563 320" stroke="#707070"/>
<path id="Vector_3" d="M154.374 135.848L11.309 319.619" stroke="#707070"/>
<path id="Vector_4" d="M93.265 57.813C93.511 26.306 72.96 0.60599 47.363 0.40599C21.766 0.20599 0.81601 25.584 0.57001 57.089C0.34701 85.651 17.219 109.443 39.446 113.789L37.911 122.989L54.898 123.122L53.507 113.901C75.801 109.9 93.042 86.374 93.265 57.813Z" fill="#003DA6"/>
<path id="Vector_5" d="M182.452 75.208C184.946 43.801 166.282 16.699 140.764 14.673C115.246 12.647 92.539 36.463 90.045 67.873C87.783 96.346 102.914 121.282 124.775 127.201L122.588 136.266L139.522 137.611L138.793 128.311C161.314 125.914 180.19 103.681 182.452 75.208Z" fill="#94D912"/>
<path id="Vector_6" d="M218.672 106.061C233.495 78.261 227.201 45.961 204.614 33.917C182.027 21.873 151.699 34.646 136.875 62.446C123.436 87.646 127.355 116.552 145.037 130.705L139.416 138.146L154.405 146.139L157.448 137.324C179.05 144.117 205.233 131.265 218.672 106.061Z" fill="#003DA6"/>
<path id="Vector_7" d="M16.138 72.185L9.72 72.135C7.68797 60.0899 7.78444 47.7818 10.005 35.77L16.422 35.82C13.5507 47.7608 13.4535 60.2008 16.138 72.185V72.185Z" fill="white"/>
<path id="Vector_8" d="M36.8514 113.706L36.818 117.984L56.0704 118.134L56.1038 113.856L36.8514 113.706Z" fill="#3F3D56"/>
<path id="Vector_9" d="M104.497 84.038L98.097 83.53C96.9313 71.3703 97.9075 59.1004 100.981 47.278L107.381 47.786C103.663 59.491 102.676 71.8924 104.497 84.038V84.038Z" fill="white"/>
<path id="Vector_10" d="M122.192 126.931L121.854 131.196L141.049 132.717L141.387 128.452L122.192 126.931Z" fill="#3F3D56"/>
<path id="Vector_11" d="M143.671 83.04L138.009 80.021C141.792 68.4064 147.584 57.5455 155.12 47.932L160.782 50.951C152.702 60.1998 146.848 71.177 143.671 83.04V83.04Z" fill="white"/>
<path id="Vector_12" d="M142.775 129.432L140.762 133.207L157.751 142.266L159.764 138.491L142.775 129.432Z" fill="#3F3D56"/>
</g>
</svg>
