<?xml version="1.0" standalone="no"?>
<!DOCTYPE svg PUBLIC "-//W3C//DTD SVG 20010904//EN"
 "http://www.w3.org/TR/2001/REC-SVG-20010904/DTD/svg10.dtd">
<svg version="1.0" xmlns="http://www.w3.org/2000/svg"
 width="1400.000000pt" height="400.000000pt" viewBox="0 0 1400.000000 400.000000"
 preserveAspectRatio="xMidYMid meet">

<g transform="translate(0.000000,400.000000) scale(0.100000,-0.100000)"
fill="#000000" stroke="none">
<path d="M9825 3020 c-314 -33 -588 -168 -803 -394 -417 -441 -466 -1101 -119
-1604 114 -166 321 -339 507 -425 296 -136 627 -154 940 -51 149 50 280 123
423 236 l28 23 24 -31 c13 -17 41 -38 63 -48 l39 -18 7 -120 c9 -180 8 -224
-10 -268 -19 -48 -30 -51 -39 -10 -4 16 -19 43 -34 59 -31 33 -112 63 -119 43
-2 -6 -12 -22 -22 -34 l-19 -23 -1 28 c0 33 -10 34 -48 2 -40 -34 -55 -75 -50
-136 6 -55 42 -105 85 -115 13 -4 23 -10 23 -15 0 -4 -26 -26 -58 -48 -102
-69 -101 -71 24 -70 101 1 107 2 79 14 -16 8 -38 14 -47 15 -31 0 -19 14 54
60 155 98 227 187 231 284 1 31 3 56 5 56 2 0 20 -12 39 -27 52 -40 134 -40
185 -1 60 46 75 140 33 204 l-17 26 -24 -23 c-29 -28 -40 -20 -26 20 6 16 8
32 5 35 -4 3 -33 6 -66 6 -54 0 -62 -3 -93 -34 -18 -18 -36 -31 -39 -28 -3 3
-5 27 -5 53 0 45 2 49 38 69 50 28 73 68 73 128 1 56 -11 90 -40 117 -19 16
-24 17 -31 5 -6 -8 -10 -21 -10 -27 0 -7 -7 -13 -15 -13 -31 0 -16 60 35 144
262 427 249 967 -33 1386 -62 91 -199 235 -287 301 -247 185 -584 280 -885
249z"/>
<path d="M3785 2025 c-500 -89 -892 -443 -1023 -925 -35 -128 -45 -232 -39
-389 10 -245 73 -444 204 -643 l45 -68 1018 0 1018 0 45 68 c140 212 207 438
207 697 0 361 -131 671 -390 919 -183 175 -371 275 -626 332 -98 22 -357 27
-459 9z"/>
<path d="M5583 2012 c-19 -3 -23 -10 -23 -38 0 -40 -16 -45 -31 -10 -25 54
-79 -20 -79 -107 0 -46 5 -61 27 -88 15 -17 42 -38 61 -46 28 -12 33 -18 28
-36 -3 -12 -6 -38 -6 -57 l0 -35 -23 28 c-29 37 -98 57 -148 44 -36 -9 -37
-10 -27 -39 14 -39 3 -46 -26 -19 l-25 23 -20 -41 c-28 -53 -26 -95 4 -146 22
-39 43 -53 102 -70 30 -8 108 13 129 36 27 30 34 23 34 -31 0 -30 8 -66 19
-88 25 -48 138 -155 223 -212 65 -43 67 -45 40 -51 -45 -9 -84 -32 -106 -62
-21 -28 -21 -29 -2 -43 34 -25 78 -66 74 -69 -2 -2 -23 1 -47 6 -24 5 -46 8
-48 5 -3 -3 0 -21 7 -40 21 -66 98 -107 172 -92 30 6 30 6 14 -17 -40 -56 -66
-118 -66 -161 0 -48 8 -60 34 -50 11 4 16 19 16 51 0 53 7 67 75 158 80 107
92 163 54 243 -20 41 -38 57 -163 145 -19 13 -18 15 21 36 54 31 73 66 73 135
0 50 -4 60 -36 96 -42 47 -70 53 -60 15 9 -35 -9 -31 -31 6 -16 26 -22 30 -50
26 -17 -3 -45 -16 -62 -28 -27 -20 -36 -35 -56 -94 -6 -20 -7 -20 -25 2 -25
31 -30 93 -22 263 l7 145 30 14 c99 45 133 150 75 231 -31 44 -89 70 -137 62z"/>
<path d="M6854 1079 c-136 -16 -297 -67 -429 -136 -328 -172 -564 -476 -647
-835 l-26 -108 1263 0 1263 0 -19 87 c-89 414 -374 747 -783 917 -166 69 -416
99 -622 75z"/>
<path d="M904 950 c-27 -11 -72 -65 -80 -96 -18 -71 20 -149 86 -179 22 -10
41 -27 44 -39 3 -11 6 -94 6 -184 0 -127 -3 -170 -15 -192 -19 -38 -31 -38
-38 -1 -9 43 -53 89 -98 101 -45 12 -56 8 -69 -26 -13 -32 -28 -30 -32 3 l-3
27 -37 -33 c-62 -55 -72 -126 -28 -199 11 -18 36 -40 55 -48 19 -8 35 -16 35
-19 0 -2 -21 -17 -47 -32 l-48 -28 42 -3 c36 -3 52 3 105 39 88 59 187 156
209 204 11 23 19 63 19 93 l0 53 28 -26 c64 -60 154 -57 213 5 49 51 57 99 30
163 -11 26 -24 47 -28 47 -3 0 -17 -10 -30 -22 -27 -25 -40 -19 -23 12 20 37
6 50 -52 50 -41 0 -62 -6 -91 -25 -20 -14 -37 -31 -37 -38 0 -7 -4 -6 -10 3
-5 8 -10 34 -10 57 0 40 3 44 40 63 92 47 109 174 32 243 -20 18 -21 18 -34
-9 -18 -37 -33 -31 -29 11 l3 35 -44 -1 c-24 0 -52 -4 -64 -9z"/>
<path d="M8684 30 c-48 -19 -35 -30 35 -30 64 0 71 2 71 20 0 17 -6 20 -42 19
-24 0 -53 -4 -64 -9z"/>
<path d="M8825 10 c-3 -5 3 -10 15 -10 12 0 18 5 15 10 -3 6 -10 10 -15 10 -5
0 -12 -4 -15 -10z"/>
</g>
</svg>
